<?xml version="1.0" encoding="utf-8"?>
<!-- Generator: Adobe Illustrator 15.1.0, SVG Export Plug-In . SVG Version: 6.00 Build 0)  -->
<!DOCTYPE svg PUBLIC "-//W3C//DTD SVG 1.1//EN" "http://www.w3.org/Graphics/SVG/1.1/DTD/svg11.dtd">
<svg version="1.1" id="Ebene_1" xmlns="http://www.w3.org/2000/svg" xmlns:xlink="http://www.w3.org/1999/xlink" x="0px" y="0px"
	 width="32px" height="32px" viewBox="0 0 32 32" enable-background="new 0 0 32 32" xml:space="preserve">
<g id="Layer_1" display="none">
	<g display="inline">
		<rect x="12.18" y="13.184" fill="none" width="2.716" height="3.716"/>
		<text transform="matrix(1 0 0 1 12.1797 16.6836)" font-family="'ArialMT'" font-size="5">B</text>
		<text transform="matrix(1 0 0 1 14.0503 18.2744)" font-family="'ArialMT'" font-size="5">V</text>
	</g>
</g>
<g id="Layer_2">
	<polygon points="4.876,3.285 7.147,3.285 7.163,21.677 4.876,21.677 	"/>
	<polygon points="8.243,3.285 13.195,3.285 15.808,5.887 15.808,10.234 14.11,11.952 15.939,13.716 21.071,25.294 26.242,13.716 
		28.617,13.716 21.041,30.584 15.939,19.007 13.181,21.677 8.212,21.677 8.212,19.417 12.259,19.417 13.671,17.995 13.671,14.315 
		12.338,13.007 8.212,13.007 8.212,11.009 12.259,11.009 13.576,9.7 13.572,6.885 12.259,5.546 8.212,5.546 	"/>
</g>
</svg>
