<?xml version="1.0" encoding="utf-8"?>
<!-- Generator: Adobe Illustrator 25.3.1, SVG Export Plug-In . SVG Version: 6.00 Build 0)  -->
<svg version="1.1" xmlns="http://www.w3.org/2000/svg" xmlns:xlink="http://www.w3.org/1999/xlink" x="0px" y="0px"
	 viewBox="0 0 1920 1080" style="enable-background:new 0 0 1920 1080;" xml:space="preserve">
<style type="text/css">
	.st0{display:none;}
	.st1{display:inline;}
	.st2{fill:none;}
	.st3{font-family:'OctinStencilRg-Regular';}
	.st4{font-size:300px;}
	.st5{font-family:'TwCenMT-Regular';}
	.st6{fill:#FFFFFF;}
</style>
<g id="Layer_1" class="st0">
	<g class="st1">
		<rect x="730.79" y="371.04" class="st2" width="162.97" height="222.97"/>
		<text transform="matrix(1 0 0 1 730.7906 581.041)" class="st3 st4">B</text>
		<text transform="matrix(1 0 0 1 843.0281 676.4672)" class="st5 st4">V</text>
	</g>
</g>
<g id="Layer_2">
	<polygon class="st6" points="747.59,371.04 773.52,371.04 773.69,581.04 747.59,581.04 	"/>
	<polygon class="st6" points="786.04,371.04 842.59,371.04 872.39,400.74 872.39,450.37 853,470 873.89,490.14 932.5,622.31 
		991.53,490.14 1018.66,490.14 932.16,682.77 873.89,550.54 842.39,581.04 785.69,581.04 785.69,555.24 831.89,555.24 848,539 
		848,497 832.79,482.04 785.69,482.04 785.69,459.24 831.89,459.24 846.92,444.3 846.89,412.14 831.89,396.84 785.69,396.84 	"/>
</g>
</svg>
